<svg id="visual" viewBox="0 0 900 450" width="900" height="450" xmlns="http://www.w3.org/2000/svg" xmlns:xlink="http://www.w3.org/1999/xlink" version="1.1"><rect x="0" y="0" width="900" height="450" fill="#FF0066"></rect><g transform="translate(861.193721050678 449.620656962787)"><path d="M342.6 -456.3C413.3 -420.2 418.8 -279 466.7 -147.8C514.6 -16.6 605 104.7 578.8 188.9C552.6 273.1 409.7 320.2 293.8 368.5C177.9 416.9 89 466.4 -0.4 467C-89.7 467.5 -179.5 419 -256.3 358C-333.2 297 -397.2 223.4 -446.8 131C-496.5 38.5 -531.6 -72.8 -481.6 -134.8C-431.6 -196.7 -296.4 -209.3 -201.9 -237.6C-107.5 -265.9 -53.7 -310 41.1 -366.6C136 -423.2 271.9 -492.3 342.6 -456.3" fill="#3f34b7"></path></g></svg>