<!DOCTYPE svg PUBLIC "-//W3C//DTD SVG 1.1//EN" "http://www.w3.org/Graphics/SVG/1.1/DTD/svg11.dtd">
<!-- Uploaded to: SVG Repo, www.svgrepo.com, Transformed by: SVG Repo Mixer Tools -->
<svg fill="#000000" width="800px" height="800px" viewBox="-2.4 -2.4 28.80 28.80" id="menu-alt-2" data-name="Flat Color" xmlns="http://www.w3.org/2000/svg" class="icon flat-color" transform="rotate(45)">
<g id="SVGRepo_bgCarrier" stroke-width="0"/>
<g id="SVGRepo_tracerCarrier" stroke-linecap="round" stroke-linejoin="round" stroke="#CCCCCC" stroke-width="1.536">
<path id="secondary" d="M11,14v7a1,1,0,0,1-1,1H3a1,1,0,0,1-1-1V14a1,1,0,0,1,1-1h7A1,1,0,0,1,11,14ZM21,2H14a1,1,0,0,0-1,1v7a1,1,0,0,0,1,1h7a1,1,0,0,0,1-1V3A1,1,0,0,0,21,2Z" style="fill: #2e2cba;"/>
<path id="primary" d="M11,3v7a1,1,0,0,1-1,1H3a1,1,0,0,1-1-1V3A1,1,0,0,1,3,2h7A1,1,0,0,1,11,3ZM21,13H14a1,1,0,0,0-1,1v7a1,1,0,0,0,1,1h7a1,1,0,0,0,1-1V14A1,1,0,0,0,21,13Z" style="fill: #ee1b1b;"/>
</g>
<g id="SVGRepo_iconCarrier">
<path id="secondary" d="M11,14v7a1,1,0,0,1-1,1H3a1,1,0,0,1-1-1V14a1,1,0,0,1,1-1h7A1,1,0,0,1,11,14ZM21,2H14a1,1,0,0,0-1,1v7a1,1,0,0,0,1,1h7a1,1,0,0,0,1-1V3A1,1,0,0,0,21,2Z" style="fill: #2e2cba;"/>
<path id="primary" d="M11,3v7a1,1,0,0,1-1,1H3a1,1,0,0,1-1-1V3A1,1,0,0,1,3,2h7A1,1,0,0,1,11,3ZM21,13H14a1,1,0,0,0-1,1v7a1,1,0,0,0,1,1h7a1,1,0,0,0,1-1V14A1,1,0,0,0,21,13Z" style="fill: #ee1b1b;"/>
</g>
</svg>