<?xml version="1.0" encoding="utf-8"?>

<!-- Uploaded to: SVG Repo, www.svgrepo.com, Generator: SVG Repo Mixer Tools -->
<svg fill="#000000" height="800px" width="800px" version="1.1" id="Icons" xmlns="http://www.w3.org/2000/svg" xmlns:xlink="http://www.w3.org/1999/xlink" 
	 viewBox="0 0 32 32" xml:space="preserve">
<g>
	<path d="M29.6,27.7c-1.4-1.1-3.6-1.1-5,0c0,0-0.1,0-0.1,0l1.4-3.5l-10-4.2L6,24.2l1.4,3.5c0,0-0.1,0-0.1,0c-1.4-1.1-3.6-1.1-5,0
		c-0.4,0.3-0.5,1-0.1,1.4c0.3,0.4,1,0.5,1.4,0.1c0.7-0.5,1.8-0.5,2.5,0c0.7,0.6,1.6,0.8,2.5,0.8c0.9,0,1.8-0.3,2.5-0.8
		c0.7-0.5,1.8-0.5,2.5,0c1.4,1.1,3.6,1.1,5,0c0.7-0.5,1.8-0.5,2.5,0c1.4,1.1,3.6,1.1,5,0c0.7-0.5,1.8-0.5,2.5,0
		c0.4,0.3,1.1,0.3,1.4-0.1C30.1,28.7,30.1,28.1,29.6,27.7z"/>
	<path d="M5.3,22.4l10.3-4.3c0,0,0,0,0,0c0.1,0,0.2-0.1,0.4-0.1c0.1,0,0.3,0,0.4,0.1c0,0,0,0,0,0l10.3,4.3l1.2-3
		c0.1-0.3,0.1-0.5,0-0.8c-0.1-0.2-0.3-0.4-0.6-0.5L24,16.8V11c0-1.7-1.3-3-3-3h-2V4c0-0.3-0.1-0.5-0.3-0.7c-1.5-1.5-3.9-1.5-5.4,0
		C13.1,3.5,13,3.7,13,4v4h-2c-1.7,0-3,1.3-3,3v5.8l-3.3,1.2c-0.3,0.1-0.5,0.3-0.6,0.5c-0.1,0.2-0.1,0.5,0,0.8L5.3,22.4z M12,11h8
		c0.6,0,1,0.4,1,1s-0.4,1-1,1h-8c-0.6,0-1-0.4-1-1S11.4,11,12,11z"/>
</g>
</svg>